<svg width="241" height="194" viewBox="0 0 241 194" fill="none" xmlns="http://www.w3.org/2000/svg">
<path d="M114.544 16.1592C151.372 16.1592 160.919 16.6155 174.559 17.9775C206.616 21.1579 225.255 40.9369 225.255 69.3574V72.9941C225.255 99.3687 205.932 120.966 179.786 123.234C177.74 130.058 174.559 136.874 170.238 143.698C160.235 159.156 140.228 178.707 103.4 178.707H96.126C66.1154 178.707 42.9277 165.751 29.0596 142.107C16.7815 121.422 15.1914 98.4564 15.1914 67.7676L15.2109 66.3604C15.7668 37.0206 33.7204 21.1216 54.7559 18.4336C70.8986 16.3872 90.906 16.1592 114.544 16.1592ZM121.599 54.8115C112.28 54.8116 105.912 59.5879 101.136 66.1768C96.8145 59.5818 90.2258 54.8116 80.9004 54.8115C64.986 54.8115 54.5256 67.767 54.5254 82.3193L54.5371 82.9473C54.7666 96.0938 62.1828 107.468 71.5811 116.424C77.9482 122.562 87.9516 128.93 94.7686 133.022C96.8146 134.157 98.861 134.841 101.136 134.841C103.866 134.841 106.134 134.157 107.959 133.022C114.782 128.93 124.779 122.562 130.919 116.424C140.694 107.332 148.195 95.7378 148.195 82.3193C148.195 67.767 137.285 54.8115 121.599 54.8115ZM171.841 53.2197C168.204 53.2198 166.158 55.2656 166.158 57.9961V83.6797C166.158 86.4102 168.204 88.457 171.841 88.457C183.435 88.457 189.802 81.8617 189.802 70.9521C189.802 60.0426 183.435 53.2197 171.841 53.2197Z" fill="currentColor"/>
</svg>
